<svg id="svg" version="1.1" xmlns="http://www.w3.org/2000/svg" xmlns:xlink="http://www.w3.org/1999/xlink" width="400" height="400" viewBox="0, 0, 400,400"><g id="svgg"><path id="path0" d="M126.662 84.410 C 122.150 85.189,121.995 85.793,122.023 102.487 C 122.047 117.314,122.168 118.308,124.129 119.763 L 125.259 120.600 203.547 120.800 C 290.331 121.022,282.918 120.776,284.694 123.488 C 285.857 125.262,285.782 275.168,284.618 277.094 C 283.010 279.751,286.575 279.588,229.853 279.606 C 173.148 279.625,176.737 279.785,175.381 277.163 C 175.033 276.490,174.585 274.938,174.386 273.715 C 173.525 268.426,174.192 268.234,156.000 278.998 C 152.590 281.016,145.390 285.240,140.000 288.385 C 127.657 295.586,126.524 296.299,126.236 297.052 C 125.430 299.150,126.280 299.893,135.139 304.847 C 138.363 306.649,144.060 309.873,147.800 312.012 C 174.825 327.463,173.868 327.121,174.587 321.587 C 174.717 320.590,175.182 319.184,175.620 318.463 C 177.232 315.812,172.224 315.982,248.106 316.012 C 319.918 316.041,318.988 316.059,320.567 314.596 C 322.466 312.835,322.413 316.412,322.304 199.074 L 322.200 87.659 321.364 86.529 C 319.503 84.015,327.320 84.206,223.400 84.138 C 171.260 84.104,127.728 84.226,126.662 84.410 " stroke="none" fill="#fbfbfb" fill-rule="evenodd"></path><path id="path1" d="M0.000 200.000 L 0.000 400.000 200.000 400.000 L 400.000 400.000 400.000 200.000 L 400.000 0.000 200.000 0.000 L 0.000 0.000 0.000 200.000 M321.600 82.609 C 322.431 83.089,323.367 84.143,323.903 85.199 L 324.805 86.981 324.703 200.661 L 324.600 314.341 323.775 315.446 C 322.395 317.294,321.076 318.021,318.379 318.419 C 316.409 318.709,228.764 318.835,182.265 318.615 C 178.203 318.596,177.200 319.496,177.200 323.163 C 177.200 327.325,176.236 328.800,173.516 328.800 C 172.201 328.800,169.522 327.352,145.400 313.603 C 141.660 311.472,135.314 307.878,131.297 305.618 C 120.191 299.368,119.307 297.187,126.324 293.348 C 128.823 291.981,133.704 289.135,153.200 277.676 C 157.490 275.155,161.630 272.727,162.400 272.282 C 163.170 271.836,165.349 270.504,167.243 269.320 C 173.806 265.218,176.429 265.953,176.894 272.022 C 177.331 277.716,172.182 277.228,230.535 277.106 L 280.869 277.000 281.835 275.878 L 282.800 274.755 282.800 200.222 C 282.800 127.434,282.782 125.667,282.035 124.744 L 281.271 123.800 202.935 123.600 L 124.600 123.400 122.947 122.453 C 119.470 120.460,119.418 120.197,119.273 103.894 C 119.109 85.410,119.457 83.740,123.800 82.199 C 126.787 81.139,319.748 81.539,321.600 82.609 M91.027 108.834 C 103.668 111.142,111.618 125.767,106.307 136.942 C 98.465 153.440,76.781 153.447,68.906 136.955 C 62.263 123.041,75.648 106.025,91.027 108.834 M92.242 162.131 C 92.706 162.671,94.845 166.507,96.994 170.656 C 101.266 178.902,107.958 191.490,115.064 204.650 C 122.105 217.689,122.048 219.600,114.621 219.600 C 111.163 219.600,109.628 220.305,109.579 221.916 C 109.568 222.292,109.574 238.170,109.593 257.200 C 109.634 297.531,109.680 297.021,105.868 299.106 C 104.281 299.974,74.123 300.387,71.131 299.581 C 65.823 298.152,65.956 299.275,66.019 256.343 C 66.081 214.279,66.639 218.002,60.274 217.999 C 52.653 217.995,52.632 215.372,60.162 203.575 C 62.751 199.519,69.182 189.270,74.452 180.800 C 79.722 172.330,84.492 164.667,85.051 163.772 C 86.995 160.662,90.325 159.902,92.242 162.131 " stroke="none" fill="#4bc3e4" fill-rule="evenodd"></path><path id="path2" d="M87.124 165.100 C 86.559 165.705,85.013 168.000,83.688 170.200 C 80.046 176.245,66.606 197.767,62.007 204.919 C 56.549 213.407,56.367 215.552,61.100 215.632 C 64.103 215.683,66.420 216.459,67.363 217.729 C 68.195 218.852,68.201 219.081,68.400 256.329 C 68.623 298.055,68.443 295.570,71.343 296.946 C 73.417 297.930,102.183 297.930,104.257 296.946 C 107.155 295.571,106.977 297.978,107.200 257.000 C 107.356 228.238,107.511 220.005,107.909 219.309 C 108.647 218.018,109.666 217.599,112.702 217.337 C 118.082 216.874,118.472 215.211,114.706 208.776 C 113.490 206.699,110.604 201.400,108.292 197.000 C 89.228 160.720,90.051 161.961,87.124 165.100 " stroke="none" fill="#e6e436" fill-rule="evenodd"></path><path id="path3" d="M83.214 110.240 C 65.714 114.943,63.203 138.324,79.352 146.196 C 98.403 155.483,116.370 130.352,101.118 115.751 C 95.609 110.477,89.420 108.572,83.214 110.240 " stroke="none" fill="#f0040f" fill-rule="evenodd"></path><path id="path4" d="M123.800 82.199 C 119.457 83.740,119.109 85.410,119.273 103.894 C 119.418 120.197,119.470 120.460,122.947 122.453 L 124.600 123.400 202.935 123.600 L 281.271 123.800 282.035 124.744 C 282.782 125.667,282.800 127.434,282.800 200.222 L 282.800 274.755 281.835 275.878 L 280.869 277.000 230.535 277.106 C 172.182 277.228,177.331 277.716,176.894 272.022 C 176.429 265.953,173.806 265.218,167.243 269.320 C 165.349 270.504,163.170 271.836,162.400 272.282 C 161.630 272.727,157.490 275.155,153.200 277.676 C 133.704 289.135,128.823 291.981,126.324 293.348 C 119.307 297.187,120.191 299.368,131.297 305.618 C 135.314 307.878,141.660 311.472,145.400 313.603 C 169.522 327.352,172.201 328.800,173.516 328.800 C 176.236 328.800,177.200 327.325,177.200 323.163 C 177.200 319.496,178.203 318.596,182.265 318.615 C 228.764 318.835,316.409 318.709,318.379 318.419 C 321.076 318.021,322.395 317.294,323.775 315.446 L 324.600 314.341 324.703 200.661 L 324.805 86.981 323.903 85.199 C 321.984 81.414,333.513 81.812,222.800 81.715 C 139.543 81.643,125.168 81.713,123.800 82.199 M319.364 84.800 C 320.004 85.130,320.904 85.908,321.364 86.529 L 322.200 87.659 322.304 199.074 C 322.413 316.412,322.466 312.835,320.567 314.596 C 318.988 316.059,319.918 316.041,248.106 316.012 C 172.224 315.982,177.232 315.812,175.620 318.463 C 175.182 319.184,174.717 320.590,174.587 321.587 C 173.868 327.121,174.825 327.463,147.800 312.012 C 144.060 309.873,138.363 306.649,135.139 304.847 C 126.280 299.893,125.430 299.150,126.236 297.052 C 126.524 296.299,127.657 295.586,140.000 288.385 C 145.390 285.240,152.590 281.016,156.000 278.998 C 174.192 268.234,173.525 268.426,174.386 273.715 C 174.585 274.938,175.033 276.490,175.381 277.163 C 176.737 279.785,173.148 279.625,229.853 279.606 C 286.575 279.588,283.010 279.751,284.618 277.094 C 285.782 275.168,285.857 125.262,284.694 123.488 C 282.918 120.776,290.331 121.022,203.547 120.800 L 125.259 120.600 124.129 119.763 C 122.168 118.308,122.047 117.314,122.023 102.487 C 121.995 85.793,122.150 85.189,126.662 84.410 C 130.529 83.743,318.049 84.122,319.364 84.800 M83.804 108.870 C 71.480 111.220,63.659 125.964,68.906 136.955 C 76.781 153.447,98.465 153.440,106.307 136.942 C 112.991 122.878,99.381 105.900,83.804 108.870 M91.783 110.212 C 109.543 114.838,112.173 138.147,95.847 146.216 C 79.940 154.077,62.416 136.848,70.182 120.983 C 74.194 112.789,83.623 108.087,91.783 110.212 M87.134 161.460 C 86.548 161.836,85.611 162.876,85.051 163.772 C 84.492 164.667,79.722 172.330,74.452 180.800 C 69.182 189.270,62.751 199.519,60.162 203.575 C 52.632 215.372,52.653 217.995,60.274 217.999 C 66.639 218.002,66.081 214.279,66.019 256.343 C 65.956 299.275,65.823 298.152,71.131 299.581 C 74.123 300.387,104.281 299.974,105.868 299.106 C 109.680 297.021,109.634 297.531,109.593 257.200 C 109.574 238.170,109.568 222.292,109.579 221.916 C 109.628 220.305,111.163 219.600,114.621 219.600 C 122.048 219.600,122.105 217.689,115.064 204.650 C 107.958 191.490,101.266 178.902,96.994 170.656 C 91.829 160.686,90.408 159.360,87.134 161.460 M90.932 164.725 C 91.537 165.393,97.895 177.214,108.292 197.000 C 110.604 201.400,113.490 206.699,114.706 208.776 C 118.472 215.211,118.082 216.874,112.702 217.337 C 109.666 217.599,108.647 218.018,107.909 219.309 C 107.511 220.005,107.356 228.238,107.200 257.000 C 106.977 297.978,107.155 295.571,104.257 296.946 C 102.183 297.930,73.417 297.930,71.343 296.946 C 68.443 295.570,68.623 298.055,68.400 256.329 C 68.201 219.081,68.195 218.852,67.363 217.729 C 66.420 216.459,64.103 215.683,61.100 215.632 C 56.367 215.552,56.549 213.407,62.007 204.919 C 66.606 197.767,80.046 176.245,83.688 170.200 C 87.380 164.071,89.138 162.742,90.932 164.725 " stroke="none" fill="#95d9d5" fill-rule="evenodd"></path></g></svg>